# xmcd
#
# Track frame offsets:
# 150
# 20236
# 39435
# 54422
# 71427
# 85519
# 101382
# 119791
# 135954
# 154748
# 170248
# 189303
# 205832
# 220586
# 231779
# 248171
# 264492
# 300518
#
# Disc length: 4441 seconds
#
#
# Revision: 0
# Processed by: cddbd v1.5.2PL0 Copyright (c) Steve Scherf et al.
# Submitted via: FreeRIP 2.92 
#
DISCID=ef115712
DTITLE=Luz Cazal - Pequeños. Medianos y Grandes Exitos
DYEAR=2006
DGENRE=Easy Listening
TTITLE0=Pensa En Mi
TTITLE1=No Me Importa Nada
TTITLE2=Un Año De Amor
TTITLE3=Lo eres todo
TTITLE4=Un Nuevo Dia Brillara
TTITLE5=Entre Mis Recuerdos
TTITLE6=Me Gustaria Que Comprendieras
TTITLE7=Ni Tu Ni Yo
TTITLE8=Sentir
TTITLE9=Octubre
TTITLE10=Pueden Ser Tantas Cosas
TTITLE11=Ecos
TTITLE12=Inesperadamente
TTITLE13=En un siglo veras
TTITLE14=Mi Confianza
TTITLE15=Dame Un Beso
TTITLE16=Negra Sombra
TTITLE17=Data
EXTD=
EXTT0=
EXTT1=
EXTT2=
EXTT3=
EXTT4=
EXTT5=
EXTT6=
EXTT7=
EXTT8=
EXTT9=
EXTT10=
EXTT11=
EXTT12=
EXTT13=
EXTT14=
EXTT15=
EXTT16=
EXTT17=
PLAYORDER=
